<?xml version="1.0" encoding="UTF-8" standalone="no"?><!DOCTYPE svg PUBLIC "-//W3C//DTD SVG 1.1//EN" "http://www.w3.org/Graphics/SVG/1.1/DTD/svg11.dtd"><svg width="100%" height="100%" viewBox="0 0 246 246" version="1.1" xmlns="http://www.w3.org/2000/svg" xmlns:xlink="http://www.w3.org/1999/xlink" xml:space="preserve" xmlns:serif="http://www.serif.com/" style="fill-rule:evenodd;clip-rule:evenodd;stroke-linejoin:round;stroke-miterlimit:2;"><path d="M233.52,75.454l0,94.853c0,13.379 -10.862,24.24 -24.24,24.24l-172.8,0c-13.379,0 -24.24,-10.862 -24.24,-24.24l0,-94.853c0,-13.379 10.862,-24.24 24.24,-24.24l172.8,0c13.379,0 24.24,10.862 24.24,24.24Z" style="fill:#961813;"/><path d="M158.633,75.454l0,94.853c0,13.379 -10.862,24.24 -24.24,24.24l-97.913,0c-13.379,0 -24.24,-10.862 -24.24,-24.24l0,-94.853c0,-13.379 10.862,-24.24 24.24,-24.24l97.913,0c13.379,0 24.24,10.862 24.24,24.24Z" style="fill:#191d40;"/><rect x="87.127" y="51.213" width="71.506" height="143.333" style="fill:#fff;"/></svg>